<?xml version="1.0" encoding="utf-8"?>
<svg width="164" height="320" viewBox="0 0 164 320" fill="none" xmlns="http://www.w3.org/2000/svg">
  <g>
    <path d="M163.2 81.9072L163.2 319.197L0 319.197C0 319.197 0 81.9072 0 81.9072C0 36.7014 36.5636 0 81.6 0C81.6 0 81.6 0 81.6 0C126.636 0 163.2 36.7012 163.2 81.9072C163.2 81.9072 163.2 81.9072 163.2 81.9072Z" fill="#E3ECF3" transform="translate(0.4 0.402)" />
    <path d="M1.90139e-05 5.597L1.90139e-05 73.05C1.90139e-05 73.05 72.484 73.05 72.484 73.05C74.454 72.9817 76.222 72.3935 77.67 71.4279C77.69 71.4158 77.71 71.4038 77.728 71.3897C77.938 71.2492 78.142 71.0986 78.338 70.938C78.41 70.8818 78.48 70.8216 78.55 70.7634C78.618 70.7032 78.688 70.6429 78.754 70.5827C78.756 70.5827 78.756 70.5807 78.758 70.5807C78.824 70.5185 78.89 70.4562 78.954 70.394C79.014 70.3378 79.072 70.2796 79.13 70.2193C79.2 70.1491 79.268 70.0768 79.334 70.0045C79.394 69.9383 79.454 69.872 79.512 69.8058C79.58 69.7255 79.646 69.6472 79.712 69.5649C79.76 69.5027 79.81 69.4404 79.856 69.3782C79.912 69.3059 79.966 69.2336 80.018 69.1594C80.122 69.0128 80.224 68.8622 80.32 68.7077C80.368 68.6294 80.416 68.5511 80.462 68.4708C80.506 68.3945 80.55 68.3162 80.592 68.2379C80.632 68.1636 80.672 68.0894 80.71 68.0151C80.76 67.9147 80.808 67.8143 80.856 67.7119C80.888 67.6417 80.918 67.5714 80.948 67.4991C80.984 67.4148 81.02 67.3305 81.052 67.2462C81.112 67.0916 81.168 66.935 81.22 66.7764C81.24 66.7182 81.258 66.66 81.276 66.5998C81.344 66.3769 81.402 66.1501 81.454 65.9212C81.472 65.8369 81.49 65.7546 81.506 65.6703C81.548 65.4454 81.582 65.2186 81.608 64.9897C81.616 64.9275 81.622 64.8652 81.628 64.803C81.634 64.7328 81.64 64.6645 81.644 64.5962C81.65 64.536 81.652 64.4778 81.654 64.4176C81.658 64.3473 81.662 64.277 81.664 64.2068C81.666 64.1164 81.668 64.0261 81.668 63.9358C81.668 63.2994 81.604 62.6489 81.472 61.9885C80.362 56.4156 73.208 50.4913 63.494 54.129C67.614 45.5267 65.13 37.3942 59.372 32.7247C59.21 32.5922 59.044 32.4637 58.876 32.3372C58.792 32.273 58.708 32.2108 58.624 32.1506C58.368 31.9639 58.106 31.7852 57.84 31.6145C57.662 31.5001 57.482 31.3877 57.3 31.2793C57.118 31.1709 56.934 31.0645 56.746 30.9621C56.466 30.8075 56.182 30.661 55.892 30.5225C55.602 30.3819 55.308 30.2494 55.008 30.125C54.708 30.0005 54.404 29.882 54.096 29.7717C53.634 29.607 53.162 29.4585 52.682 29.33C52.522 29.2858 52.36 29.2457 52.198 29.2055C51.874 29.1272 51.546 29.057 51.214 28.9947C49.092 28.5972 46.828 28.541 44.486 28.8863C44.256 28.9205 44.024 28.9586 43.794 28.9987C43.676 29.0188 43.558 29.0409 43.44 29.065C43.206 29.1112 42.974 29.1614 42.74 29.2136C42.74 29.2136 42.738 29.2136 42.738 29.2136C42.62 29.2417 42.504 29.2678 42.386 29.2979C42.27 29.326 42.152 29.3541 42.034 29.3862C45.712 12.9927 32.34 0 16.906 0C16.758 0 16.608 0.00200653 16.46 0.00402069C16.326 0.00602722 16.192 0.00804138 16.058 0.0120468C16.034 0.0140533 16.008 0.0140533 15.984 0.0160599C15.9 0.018074 15.816 0.0220947 15.732 0.0261002C15.67 0.0281067 15.608 0.0301208 15.546 0.0341263C15.316 0.0441589 15.086 0.0582123 14.856 0.0762863C14.744 0.0843124 14.632 0.0943604 14.52 0.104393C14.406 0.112419 14.292 0.124466 14.178 0.136513C13.948 0.158592 13.72 0.184692 13.49 0.212799C13.412 0.220825 13.334 0.232864 13.256 0.242912C13.124 0.260986 12.992 0.279053 12.86 0.299133C12.536 0.345299 12.212 0.399506 11.888 0.459732C11.798 0.475792 11.708 0.493858 11.618 0.511932C11.266 0.580193 10.912 0.654465 10.56 0.738785C10.42 0.770897 10.28 0.805031 10.14 0.841164C9.992 0.877304 9.844 0.915443 9.698 0.955597C9.698 0.955597 9.386 1.03991 9.386 1.03991C8.57 1.27078 7.754 1.53777 6.942 1.84694C6.722 1.93125 6.5 2.01958 6.28 2.10792C6.14 2.16613 6 2.22436 5.862 2.28458C5.546 2.41707 5.23 2.55961 4.916 2.70615C4.454 2.92297 3.994 3.15182 3.536 3.39876C3.422 3.45898 3.31 3.5192 3.198 3.58144C3.086 3.64166 2.974 3.7059 2.862 3.76814C2.636 3.89461 2.414 4.0251 2.19 4.15961C2.078 4.22586 1.966 4.29411 1.856 4.36237C1.744 4.43063 1.634 4.49888 1.522 4.56915C1.01 4.89236 0.504 5.23364 0 5.59299C0 5.59299 0 5.597 0 5.597L1.90139e-05 5.597Z" fill="#FFFFFF" transform="translate(0.399 111.466)" />
    <path d="M163.6 320C163.6 320 0.4 320 0.4 320C0.1792 320 0 319.82 0 319.598C0 319.598 0 82.3085 0 82.3085C0 71.1972 2.1682 60.4178 6.4442 50.2703C10.5742 40.469 16.4866 31.6665 24.0172 24.1076C31.5478 16.5487 40.317 10.614 50.0818 6.46846C60.1912 2.17636 70.9302 0 81.9998 0C93.0694 0 103.808 2.17636 113.918 6.46846C123.683 10.614 132.452 16.5487 139.983 24.1076C147.513 31.6665 153.426 40.469 157.556 50.2703C161.832 60.418 164 71.1972 164 82.3087C164 82.3087 164 319.598 164 319.598C164 319.82 163.821 320 163.6 320C163.6 320 163.6 320 163.6 320ZM0.8 319.197L163.2 319.197C163.2 319.197 163.2 82.3085 163.2 82.3085C163.2 37.3661 126.774 0.803011 82 0.803011C37.226 0.803011 0.8 37.3661 0.8 82.3085C0.8 82.3085 0.8 319.197 0.8 319.197L0.8 319.197Z" fill="#000F2C" />
  </g>
</svg>